<svg xmlns="http://www.w3.org/2000/svg" xmlns:xlink="http://www.w3.org/1999/xlink" version="1.1" x="0px" y="0px" viewBox="0 0 50 62.5" enable-background="new 0 0 50 50" xml:space="preserve"><g><path fill-rule="evenodd" clip-rule="evenodd" d="M40.275,34.627c-0.952,1.649-0.702,3.672,0.626,5.035l1.373,1.412H36.83   l-0.479-0.517c-1.449-1.582-3.347-3.589-5.798-3.151c-5.132,0.92-9.106,0.831-14.343-0.32c-2.135-0.468-4.723,1.569-6.685,3.194   l-0.973,0.794H2.988l2.002-2.116c1.569-1.657,1.504-2.987,1.434-4.394c-0.017-0.309-0.031-0.64-0.031-1   c0-2.945,1.77-5.494,4.622-6.655l14.648-5.976c4.343-1.772,5.949-4.192,7.983-7.256c0.43-0.649,0.888-1.337,1.432-2.116   c0.878-1.43,3.058-2.635,4.759-2.635c2.289,0,2.289,0,4.368,1.084l3.331,1.066c0.096,0.031,0.253,0.232,0.376,0.604   c0.364,1.111,0.14,2.566-0.035,2.807l-2.66,2.251c-1.77,1.495-1.645,4.049-1.545,6.1c0.019,0.422,0.039,0.829,0.041,1.21   c0.033,4.593-1.16,6.651-3.329,10.389L40.275,34.627z M41.426,12.336c0.61,0,1.105-0.495,1.105-1.105   c0-0.609-0.495-1.105-1.105-1.105c-0.609,0-1.105,0.496-1.105,1.105C40.321,11.841,40.817,12.336,41.426,12.336z M49.341,24.18   c0.478-2.163,0.876-7.099,0.525-10.441c0.069-0.742,0.016-1.511-0.103-2.076c-0.258-1.236-0.866-2.054-1.713-2.308l-2.776-0.816   l-0.238-0.123c-2.263-1.18-2.545-1.288-5.201-1.288c-2.324,0-5.088,1.534-6.26,3.447c-0.524,0.745-0.991,1.446-1.429,2.109   c-2.009,3.024-3.332,5.023-7.164,6.586l-14.649,5.974c-3.541,1.445-5.741,4.632-5.741,8.321c0,0.393,0.017,0.753,0.033,1.09   c0.066,1.31,0.098,1.968-0.943,3.069l-3.437,3.631C0,41.616-0.07,41.999,0.074,42.328c0.143,0.329,0.466,0.544,0.826,0.544h7.956   c0.192,0,0.38-0.061,0.536-0.178c0.377-0.28,0.81-0.64,1.281-1.029c1.568-1.302,3.826-3.124,5.15-2.824   c5.475,1.201,9.675,1.293,15.047,0.334c1.543-0.28,2.925,1.25,4.155,2.594l0.78,0.835c0.169,0.171,0.399,0.268,0.642,0.268h7.955   c0.017,0.002,0.031,0,0.041,0c0.497,0,0.899-0.403,0.899-0.9c0-0.326-0.174-0.612-0.434-0.77l-2.719-2.795   c-0.772-0.792-0.911-1.923-0.358-2.881l0.112-0.19c2.248-3.879,3.605-6.219,3.57-11.303c-0.002-0.403-0.025-0.837-0.045-1.283   c-0.084-1.743-0.18-3.719,0.913-4.644l1.647-1.392c0.305,2.041,0.351,5.587,0.102,7.312C48.014,24.822,49.184,24.891,49.341,24.18z   "/></g><text x="0" y="65" fill="#000000" font-size="5px" font-weight="bold" font-family="'Helvetica Neue', Helvetica, Arial-Unicode, Arial, Sans-serif">Created by Georgiana Ionescu</text><text x="0" y="70" fill="#000000" font-size="5px" font-weight="bold" font-family="'Helvetica Neue', Helvetica, Arial-Unicode, Arial, Sans-serif">from the Noun Project</text></svg>